<?xml version="1.0" encoding="UTF-8" standalone="no"?>
<!-- Created with Inkscape (http://www.inkscape.org/) -->
<svg
   xmlns:svg="http://www.w3.org/2000/svg"
   xmlns="http://www.w3.org/2000/svg"
   version="1.0"
   width="32"
   height="32"
   id="svg1307">
  <defs
     id="defs1309" />
  <g
     id="layer1">
    <path
       d="M 29.827282 21.283611 A 8.5731106 8.5731106 0 1 1  12.681061,21.283611 A 8.5731106 8.5731106 0 1 1  29.827282 21.283611 z"
       transform="matrix(1.830942,0,0,1.830942,-22.91516,-22.96906)"
       style="fill:none;fill-opacity:1;stroke:#ed0b00;stroke-width:0.27308345;stroke-linejoin:miter;stroke-miterlimit:4;stroke-dasharray:none;stroke-opacity:1"
       id="path1315" />
    <path
       d="M 14.645731,6.9504414 A 2.0539746,0.66977429 0 1 1 14.634678,6.8810487"
       transform="translate(1.712218,-3.030667)"
       style="fill:none;fill-opacity:1;stroke:#f40b00;stroke-width:0.5;stroke-linejoin:miter;stroke-miterlimit:4;stroke-dasharray:none;stroke-opacity:1"
       id="path2192" />
    <rect
       width="3.75"
       height="6.456039"
       rx="1.1609422"
       ry="1.1609427"
       x="12.25"
       y="4.293961"
       style="fill:#fc0000;fill-opacity:1;stroke:#fe0b00;stroke-width:0.50000024;stroke-linejoin:miter;stroke-miterlimit:4;stroke-dasharray:none;stroke-opacity:1"
       id="rect2194" />
    <path
       d="M 22.357213,11.067713 C 18.714426,16.73209 18,17 18,17 L 5,17 L 4,16 L 10,8 L 23,8 L 27,16 L 25.910697,16.642787 L 22.357213,11.067713 z "
       style="fill:none;fill-opacity:0.75;fill-rule:evenodd;stroke:#fb0000;stroke-width:1px;stroke-linecap:butt;stroke-linejoin:miter;stroke-opacity:1"
       id="path2196" />
    <path
       d="M 7,17 L 7,25 L 21,25 L 21,19 L 23,19 L 23,25 L 25,25 L 25,16 L 22,11.875368 L 18,17 L 7,17 z "
       style="fill:#fc0000;fill-opacity:1;fill-rule:evenodd;stroke:#ff0000;stroke-width:1px;stroke-linecap:butt;stroke-linejoin:miter;stroke-opacity:1"
       id="path2198" />
    <path
       d="M 8,19 L 11,19 L 11,22 L 8,22 L 8,19 z "
       style="fill:#fff4f8;fill-opacity:1;fill-rule:evenodd;stroke:none;stroke-width:1px;stroke-linecap:butt;stroke-linejoin:miter;stroke-opacity:1"
       id="path2200" />
    <path
       d="M 13.5,18.964181 L 16.5,18.964181 L 16.5,21.964181 L 13.5,21.964181 L 13.5,18.964181 z "
       style="fill:#fff4f8;fill-opacity:1;fill-rule:evenodd;stroke:#fc0300;stroke-width:1px;stroke-linecap:butt;stroke-linejoin:miter;stroke-opacity:0"
       id="path2202" />
  </g>
</svg>
