%
T1C0.028F200S100
X003250Y021000
X004000Y023000
X006250Y022500
X007500Y034000
X009000Y011250
X009750Y009750
X010250Y000750
X010250Y010500
X010500Y011750
X011000Y023750
X011500Y009750
X011500Y016250
X012000Y015250
X012250Y020500
X012750Y016750
X014000Y007500
X016250Y020500
X017750Y002250
X018000Y000750
X018250Y017500
X019000Y018000
X019250Y010750
X019500Y017000
X020000Y010750
X020000Y025250
X019500Y029000
X021000Y009750
X021000Y010500
X021750Y014000
X021000Y024750
X022000Y029500
X022500Y006250
X022500Y010750
X023000Y020250
X023500Y006250
X024000Y025000
X024250Y010750
X024750Y014750
X024750Y017000
X025000Y023500
X025750Y018250
X026000Y003250
X026000Y032500
X027000Y008750
X027500Y011250
X027000Y019750
X028000Y010000
X028000Y014000
X028500Y023250
X028000Y024000
X028500Y029500
X029000Y013000
X029000Y018500
X029250Y019750
X029250Y020750
X029000Y024750
X029250Y027000
X029500Y009250
X029750Y018500
X030250Y018000
X032000Y012500
X032000Y013750
X032000Y026000
X032500Y028000
X037250Y030250
T2C0.032F200S100
X001500Y024000
X002750Y024000
X004750Y023500
X006000Y001000
X006000Y002000
X006000Y003000
X006000Y004000
X006000Y005000
X006000Y006000
X006000Y007000
X006000Y008000
X006750Y009500
X007750Y023500
X008000Y009500
X009000Y001000
X009000Y002000
X009000Y003000
X009000Y004000
X009000Y005000
X009000Y006000
X009000Y007000
X009000Y008000
X011500Y001000
X011500Y002000
X011500Y003000
X011500Y004000
X011500Y005000
X011500Y006000
X011500Y007000
X011500Y008000
X012250Y009500
X013500Y009500
X014500Y001000
X014500Y002000
X014500Y003000
X014500Y004000
X014500Y005000
X014500Y006000
X014500Y007000
X014500Y008000
X017000Y004000
X017000Y005250
X018500Y001500
X018500Y007500
X019000Y031500
X019000Y032750
X019500Y001500
X019500Y007500
X020000Y026250
X020000Y028500
X020500Y001500
X020500Y007500
X020500Y026250
X020500Y028500
X020500Y030500
X020500Y033500
X021000Y026250
X021000Y028500
X021500Y001500
X021500Y007500
X021500Y030500
X021500Y033500
X022500Y001500
X023500Y001500
X023500Y007500
X022500Y007500
X022500Y030500
X023500Y030500
X023500Y033500
X022500Y033500
X024500Y001500
X025500Y001500
X025500Y007500
X024500Y007500
X024500Y030500
X025500Y030500
X025500Y033500
X024500Y033500
X026500Y001500
X027500Y001500
X027500Y007500
X026500Y007500
X026500Y030500
X027500Y030500
X027500Y033500
X026500Y033500
X028500Y001500
X029500Y001500
X029500Y007500
X028500Y007500
X028500Y030500
X029500Y030500
X029500Y033500
X028500Y033500
X030500Y001500
X030500Y007500
X031250Y009500
X030500Y011000
X030500Y012000
X030500Y013000
X030500Y014000
X030500Y015000
X030500Y016000
X030500Y017000
X030500Y020000
X030500Y021000
X030500Y022000
X030500Y023000
X030500Y024000
X030500Y025000
X030500Y026000
X030500Y027000
X030500Y028000
X030500Y029000
X031500Y001500
X032500Y001500
X032500Y007500
X031500Y007500
X032500Y009500
X031500Y018500
X032750Y018500
X033500Y001500
X033500Y007500
X033500Y011000
X033500Y012000
X033500Y013000
X033500Y014000
X033500Y015000
X033500Y016000
X033500Y017000
X033500Y020000
X033500Y021000
X033500Y022000
X033500Y023000
X033500Y024000
X033500Y025000
X033500Y026000
X033500Y027000
X033500Y028000
X033500Y029000
T3C0.036F200S100
X001500Y026750
X002750Y026750
X006000Y012500
X006000Y014000
X006000Y015500
X009500Y012500
X009500Y014000
X009500Y015500
X014750Y015750
X016250Y015750
X016250Y019250
X014750Y019250
X017750Y015750
X019250Y015750
X019250Y019250
X017750Y019250
X020750Y015750
X022250Y015750
X022250Y019250
X020750Y019250
X023500Y025500
X023500Y027000
X023500Y028500
X023750Y015750
X023750Y019250
X025250Y015750
X025250Y019250
X027000Y025500
X027000Y027000
X027000Y028500
X032000Y033000
X033000Y033000
X034500Y033000
X035500Y029500
X035500Y030750
X035500Y033000
X039000Y029500
X039000Y030750
T6C0.068F200S100
X002500Y012250
X002500Y013750
X002500Y015370
T4C0.040F200S100
X001500Y004500
X001500Y007159
X002000Y008500
X002000Y010000
X002000Y029500
X002000Y030500
X003000Y008500
X003000Y010000
X003371Y004500
X003371Y007159
X005250Y025250
X005250Y027250
X007250Y025250
X007250Y027250
X012500Y022000
X012500Y023000
X013500Y022000
X013500Y023000
X014500Y022000
X014500Y023000
X015500Y022000
X015500Y023000
X016500Y022000
X016500Y023000
X017500Y022000
X017500Y023000
X018500Y022000
X018500Y023000
X019500Y022000
X019500Y023000
X020500Y022000
X020500Y023000
X021500Y022000
X021500Y023000
X022500Y022000
X022500Y023000
X023500Y022000
X023500Y023000
X024500Y022000
X024500Y023000
X025500Y022000
X025500Y023000
X026500Y022000
X026500Y023000
X027500Y022000
X027500Y023000
X036000Y011000
X036000Y012090
X036000Y013180
X036000Y014270
X036000Y015360
X036000Y016450
X036000Y017540
X036000Y018630
X036000Y019720
X036000Y020810
X036000Y021900
X036000Y022990
X036000Y024080
X037120Y011545
X037120Y012635
X037120Y013725
X037120Y014815
X037120Y015905
X037120Y016995
X037120Y018085
X037120Y019175
X037120Y020265
X037120Y021355
X037120Y022445
X037120Y023535
T7C0.110F200S100
X001500Y020000
X004500Y018000
X004500Y031000
X005500Y020000
X006500Y030000
X006500Y032500
T5C0.052F200S100
X012000Y033500
X013000Y033500
X014000Y033500
T8C0.125F200S100
X002000Y002000
X002000Y033000
X036560Y008280
X036560Y026800
X038000Y002000
X038000Y033000
M30
